<svg height="512" viewBox="0 0 64 64" width="512" xmlns="http://www.w3.org/2000/svg"><path d="m57 59h-50v-49a3 3 0 0 1 3-3h44a3 3 0 0 1 3 3z" fill="#44add8"/><path d="m57 10a3 3 0 0 0 -3-3h-44a3 3 0 0 0 -3 3v5h50z" fill="#3890ce"/><path d="m10 10h2v2h-2z" fill="#eb4042"/><path d="m14 10h2v2h-2z" fill="#fde700"/><path d="m18 10h2v2h-2z" fill="#88bf40"/><path d="m7 49h50v10h-50z" fill="#abbac2"/><path d="m44 61h-36a3 3 0 0 1 -3-3v-3h18l2 2h14l2-2h18v3a3 3 0 0 1 -3 3z" fill="#ccdce5"/><path d="m31 52h2v2h-2z" fill="#ccdce5"/><path d="m51 11-4 14 14-14z" fill="#88bf40"/><path d="m55 5h-8l4 6z" fill="#7ca540"/><path d="m47 5h-8l4 6z" fill="#88b340"/><path d="m61 11-6-6-4 6z" fill="#88b340"/><path d="m51 11-4-6-4 6z" fill="#88bf40"/><path d="m39 5-6 6h10z" fill="#88bf40"/><path d="m43 11 4 14 4-14z" fill="#88b340"/><path d="m33 11 14 14-4-14z" fill="#7ca540"/><g fill="#a1dbe8"><path d="m17.293 26.707-3-3a1 1 0 0 1 0-1.414l3-3 1.414 1.414-2.293 2.293 2.293 2.293z"/><path d="m24.707 26.707-1.414-1.414 2.293-2.293-2.293-2.293 1.414-1.414 3 3a1 1 0 0 1 0 1.414z"/><path d="m16.877 22h8.246v2h-8.246z" transform="matrix(.242 -.97 .97 .242 -6.401 37.804)"/><path d="m11 30h2v2h-2z"/><path d="m11 34h2v2h-2z"/><path d="m11 38h2v2h-2z"/><path d="m11 42h2v2h-2z"/><path d="m15 30h15v2h-15z"/><path d="m15 34h23v2h-23z"/><path d="m15 38h31v2h-31z"/><path d="m15 42h22v2h-22z"/><path d="m32 30h2v2h-2z"/><path d="m39 42h2v2h-2z"/><path d="m40 34h4v2h-4z"/><path d="m48 38h4v2h-4z"/></g><path d="m2 10h2v25h-2z" fill="#ccdce5"/><path d="m60 29h2v20h-2z" fill="#ccdce5"/><path d="m60 25h2v2h-2z" fill="#ccdce5"/></svg>